<?xml version="1.0" encoding="UTF-8"?>
<svg xmlns="http://www.w3.org/2000/svg" xmlns:xlink="http://www.w3.org/1999/xlink" width="400px" height="400px" viewBox="0 0 400 400" version="1.1">
<g id="surface1">
<path style=" stroke:none;fill-rule:nonzero;fill:rgb(98.039216%,73.725492%,1.960784%);fill-opacity:1;" d="M 287.992188 208.132812 C 309.039062 196.042969 330.027344 183.859375 351.144531 171.894531 C 371.1875 160.539062 394.769531 171.011719 399.3125 193.113281 C 401.945312 205.898438 396.234375 219.707031 384.695312 226.433594 C 346.851562 248.488281 308.957031 270.449219 270.875 292.078125 C 259.085938 298.773438 246.945312 297.542969 236.203125 289.339844 C 225.289062 281.011719 221.851562 269.523438 224.410156 256.152344 C 227.332031 245.972656 234.019531 239.167969 243.140625 234.078125 C 258.21875 225.664062 273.054688 216.804688 287.992188 208.132812 "/>
<path style=" stroke:none;fill-rule:nonzero;fill:rgb(6.27451%,61.56863%,34.509805%);fill-opacity:1;" d="M 303.441406 199.34375 C 282.449219 187.160156 261.40625 175.074219 240.488281 162.769531 C 220.628906 151.089844 217.910156 125.429688 234.777344 110.441406 C 244.53125 101.773438 259.347656 99.8125 270.941406 106.445312 C 308.960938 128.1875 346.929688 150.027344 384.703125 172.195312 C 396.394531 179.054688 401.394531 190.1875 399.667969 203.59375 C 397.910156 217.203125 389.679688 225.925781 376.824219 230.398438 C 366.546875 232.957031 357.308594 230.566406 348.339844 225.210938 C 333.511719 216.359375 318.421875 207.941406 303.441406 199.34375 "/>
<path style=" stroke:none;fill-rule:nonzero;fill:rgb(91.37255%,26.666668%,21.176471%);fill-opacity:1;" d="M 112.113281 190.722656 C 98.640625 198.375 85.164062 206.015625 71.707031 213.691406 C 63.835938 218.183594 56.050781 222.828125 48.140625 227.242188 C 32.195312 236.140625 13.257812 230.925781 4.21875 215.25 C -4.410156 200.296875 0.546875 180.90625 15.902344 171.941406 C 53.441406 150.03125 91.078125 128.28125 128.847656 106.773438 C 140.433594 100.175781 152.453125 101.003906 163.164062 108.890625 C 174.46875 117.214844 178.171875 128.925781 175.632812 142.65625 C 174.058594 145.980469 173.117188 149.875 170.757812 152.492188 C 166.921875 156.75 162.5625 160.828125 157.710938 163.820312 C 142.691406 173.082031 127.335938 181.796875 112.113281 190.722656 "/>
<path style=" stroke:none;fill-rule:nonzero;fill:rgb(26.274511%,52.156866%,95.294118%);fill-opacity:1;" d="M 96.667969 199.308594 C 110.03125 207.144531 123.386719 215 136.761719 222.816406 C 144.585938 227.386719 152.5 231.808594 160.28125 236.449219 C 175.957031 245.808594 180.914062 264.820312 171.859375 280.484375 C 163.21875 295.433594 143.945312 300.835938 128.507812 292.019531 C 90.761719 270.464844 53.109375 248.75 15.59375 226.789062 C 4.089844 220.054688 -1.199219 209.234375 0.273438 196.011719 C 1.828125 182.058594 10.121094 172.996094 23.28125 168.328125 C 26.945312 168.035156 30.789062 166.898438 34.234375 167.632812 C 39.839844 168.828125 45.550781 170.5625 50.570312 173.269531 C 66.101562 181.644531 81.324219 190.585938 96.667969 199.308594 "/>
</g>
</svg>
